<mxfile host="app.diagrams.net" modified="2021-06-07T12:58:31.997Z" agent="5.0 (Macintosh; Intel Mac OS X 10_15_6) AppleWebKit/537.36 (KHTML, like Gecko) Chrome/91.0.4472.77 Safari/537.36" etag="ZF6ZTBj4LPnoP8KzBTZt" version="14.7.6" type="github">
  <diagram id="vND71lBDzILibV6Dav3H" name="Page-1">
    <mxGraphModel dx="1426" dy="704" grid="1" gridSize="10" guides="1" tooltips="1" connect="1" arrows="1" fold="1" page="1" pageScale="1" pageWidth="827" pageHeight="1169" math="0" shadow="0">
      <root>
        <mxCell id="0" />
        <mxCell id="1" parent="0" />
        <mxCell id="9gEw9Mo14xb1F1GqbIKO-8" style="edgeStyle=orthogonalEdgeStyle;rounded=0;orthogonalLoop=1;jettySize=auto;html=1;entryX=0;entryY=0.5;entryDx=0;entryDy=0;" parent="1" source="9gEw9Mo14xb1F1GqbIKO-1" target="9gEw9Mo14xb1F1GqbIKO-3" edge="1">
          <mxGeometry relative="1" as="geometry" />
        </mxCell>
        <mxCell id="9gEw9Mo14xb1F1GqbIKO-1" value="hchan.buf" style="rounded=0;whiteSpace=wrap;html=1;" parent="1" vertex="1">
          <mxGeometry x="50" y="170" width="120" height="60" as="geometry" />
        </mxCell>
        <mxCell id="9gEw9Mo14xb1F1GqbIKO-3" value="a" style="whiteSpace=wrap;html=1;aspect=fixed;" parent="1" vertex="1">
          <mxGeometry x="380" y="170" width="50" height="50" as="geometry" />
        </mxCell>
        <mxCell id="9gEw9Mo14xb1F1GqbIKO-4" value="b" style="whiteSpace=wrap;html=1;aspect=fixed;" parent="1" vertex="1">
          <mxGeometry x="430" y="170" width="50" height="50" as="geometry" />
        </mxCell>
        <mxCell id="9gEw9Mo14xb1F1GqbIKO-5" value="c" style="whiteSpace=wrap;html=1;aspect=fixed;" parent="1" vertex="1">
          <mxGeometry x="480" y="170" width="50" height="50" as="geometry" />
        </mxCell>
        <mxCell id="9gEw9Mo14xb1F1GqbIKO-6" value="d" style="whiteSpace=wrap;html=1;aspect=fixed;" parent="1" vertex="1">
          <mxGeometry x="530" y="170" width="50" height="50" as="geometry" />
        </mxCell>
        <mxCell id="9gEw9Mo14xb1F1GqbIKO-7" value="..." style="whiteSpace=wrap;html=1;aspect=fixed;" parent="1" vertex="1">
          <mxGeometry x="580" y="170" width="50" height="50" as="geometry" />
        </mxCell>
        <mxCell id="9gEw9Mo14xb1F1GqbIKO-30" style="edgeStyle=orthogonalEdgeStyle;rounded=0;orthogonalLoop=1;jettySize=auto;html=1;entryX=0;entryY=0.75;entryDx=0;entryDy=0;" parent="1" source="9gEw9Mo14xb1F1GqbIKO-9" target="9gEw9Mo14xb1F1GqbIKO-28" edge="1">
          <mxGeometry relative="1" as="geometry" />
        </mxCell>
        <mxCell id="9gEw9Mo14xb1F1GqbIKO-9" value="hchan.recvq" style="rounded=0;whiteSpace=wrap;html=1;" parent="1" vertex="1">
          <mxGeometry x="50" y="350" width="120" height="60" as="geometry" />
        </mxCell>
        <mxCell id="9gEw9Mo14xb1F1GqbIKO-31" style="edgeStyle=orthogonalEdgeStyle;rounded=0;orthogonalLoop=1;jettySize=auto;html=1;entryX=0;entryY=0.5;entryDx=0;entryDy=0;" parent="1" source="9gEw9Mo14xb1F1GqbIKO-10" target="9gEw9Mo14xb1F1GqbIKO-22" edge="1">
          <mxGeometry relative="1" as="geometry" />
        </mxCell>
        <mxCell id="9gEw9Mo14xb1F1GqbIKO-10" value="hchan.sendq" style="rounded=0;whiteSpace=wrap;html=1;" parent="1" vertex="1">
          <mxGeometry x="50" y="485" width="120" height="60" as="geometry" />
        </mxCell>
        <mxCell id="9gEw9Mo14xb1F1GqbIKO-12" value="Pointer *ArbitraryType" style="rounded=0;whiteSpace=wrap;html=1;" parent="1" vertex="1">
          <mxGeometry x="380" y="150" width="250" height="20" as="geometry" />
        </mxCell>
        <mxCell id="9gEw9Mo14xb1F1GqbIKO-13" value="g1" style="whiteSpace=wrap;html=1;aspect=fixed;" parent="1" vertex="1">
          <mxGeometry x="380" y="390" width="50" height="50" as="geometry" />
        </mxCell>
        <mxCell id="9gEw9Mo14xb1F1GqbIKO-14" value="g2" style="whiteSpace=wrap;html=1;aspect=fixed;" parent="1" vertex="1">
          <mxGeometry x="480" y="390" width="50" height="50" as="geometry" />
        </mxCell>
        <mxCell id="9gEw9Mo14xb1F1GqbIKO-15" value="g3" style="whiteSpace=wrap;html=1;aspect=fixed;" parent="1" vertex="1">
          <mxGeometry x="580" y="390" width="50" height="50" as="geometry" />
        </mxCell>
        <mxCell id="9gEw9Mo14xb1F1GqbIKO-17" value="" style="endArrow=classic;startArrow=classic;html=1;" parent="1" edge="1">
          <mxGeometry width="50" height="50" relative="1" as="geometry">
            <mxPoint x="434" y="414.5" as="sourcePoint" />
            <mxPoint x="480" y="414.5" as="targetPoint" />
          </mxGeometry>
        </mxCell>
        <mxCell id="9gEw9Mo14xb1F1GqbIKO-18" value="" style="endArrow=classic;startArrow=classic;html=1;" parent="1" edge="1">
          <mxGeometry width="50" height="50" relative="1" as="geometry">
            <mxPoint x="534" y="414.5" as="sourcePoint" />
            <mxPoint x="580" y="414.5" as="targetPoint" />
          </mxGeometry>
        </mxCell>
        <mxCell id="9gEw9Mo14xb1F1GqbIKO-22" value="g1" style="whiteSpace=wrap;html=1;aspect=fixed;" parent="1" vertex="1">
          <mxGeometry x="380" y="490" width="50" height="50" as="geometry" />
        </mxCell>
        <mxCell id="9gEw9Mo14xb1F1GqbIKO-23" value="g2" style="whiteSpace=wrap;html=1;aspect=fixed;" parent="1" vertex="1">
          <mxGeometry x="480" y="490" width="50" height="50" as="geometry" />
        </mxCell>
        <mxCell id="9gEw9Mo14xb1F1GqbIKO-24" value="g3" style="whiteSpace=wrap;html=1;aspect=fixed;" parent="1" vertex="1">
          <mxGeometry x="580" y="490" width="50" height="50" as="geometry" />
        </mxCell>
        <mxCell id="9gEw9Mo14xb1F1GqbIKO-25" value="" style="endArrow=classic;startArrow=classic;html=1;" parent="1" edge="1">
          <mxGeometry width="50" height="50" relative="1" as="geometry">
            <mxPoint x="434" y="514.5" as="sourcePoint" />
            <mxPoint x="480" y="514.5" as="targetPoint" />
          </mxGeometry>
        </mxCell>
        <mxCell id="9gEw9Mo14xb1F1GqbIKO-26" value="" style="endArrow=classic;startArrow=classic;html=1;" parent="1" edge="1">
          <mxGeometry width="50" height="50" relative="1" as="geometry">
            <mxPoint x="534" y="514.5" as="sourcePoint" />
            <mxPoint x="580" y="514.5" as="targetPoint" />
          </mxGeometry>
        </mxCell>
        <mxCell id="9gEw9Mo14xb1F1GqbIKO-28" value="waitq" style="rounded=0;whiteSpace=wrap;html=1;" parent="1" vertex="1">
          <mxGeometry x="380" y="370" width="250" height="20" as="geometry" />
        </mxCell>
        <mxCell id="9gEw9Mo14xb1F1GqbIKO-32" value="waitq" style="rounded=0;whiteSpace=wrap;html=1;" parent="1" vertex="1">
          <mxGeometry x="380" y="470" width="250" height="20" as="geometry" />
        </mxCell>
        <mxCell id="76qmlr3v4MU4s4Z6uiyM-1" value="" style="endArrow=classic;startArrow=classic;html=1;" parent="1" edge="1">
          <mxGeometry width="50" height="50" relative="1" as="geometry">
            <mxPoint x="380" y="30" as="sourcePoint" />
            <mxPoint x="630" y="30" as="targetPoint" />
          </mxGeometry>
        </mxCell>
        <mxCell id="76qmlr3v4MU4s4Z6uiyM-2" value="datasize=5" style="edgeLabel;html=1;align=center;verticalAlign=middle;resizable=0;points=[];" parent="76qmlr3v4MU4s4Z6uiyM-1" vertex="1" connectable="0">
          <mxGeometry x="0.352" y="3" relative="1" as="geometry">
            <mxPoint as="offset" />
          </mxGeometry>
        </mxCell>
        <mxCell id="76qmlr3v4MU4s4Z6uiyM-3" value="" style="endArrow=classic;startArrow=classic;html=1;" parent="1" edge="1">
          <mxGeometry width="50" height="50" relative="1" as="geometry">
            <mxPoint x="380" y="300" as="sourcePoint" />
            <mxPoint x="580" y="300" as="targetPoint" />
          </mxGeometry>
        </mxCell>
        <mxCell id="76qmlr3v4MU4s4Z6uiyM-4" value="qcount=4" style="edgeLabel;html=1;align=center;verticalAlign=middle;resizable=0;points=[];" parent="76qmlr3v4MU4s4Z6uiyM-3" vertex="1" connectable="0">
          <mxGeometry x="0.352" y="3" relative="1" as="geometry">
            <mxPoint as="offset" />
          </mxGeometry>
        </mxCell>
        <mxCell id="76qmlr3v4MU4s4Z6uiyM-7" value="" style="endArrow=classic;html=1;" parent="1" edge="1">
          <mxGeometry width="50" height="50" relative="1" as="geometry">
            <mxPoint x="604.5" y="100" as="sourcePoint" />
            <mxPoint x="604.5" y="140" as="targetPoint" />
          </mxGeometry>
        </mxCell>
        <mxCell id="76qmlr3v4MU4s4Z6uiyM-8" value="sendx" style="text;html=1;strokeColor=none;fillColor=none;align=center;verticalAlign=middle;whiteSpace=wrap;rounded=0;" parent="1" vertex="1">
          <mxGeometry x="585" y="80" width="40" height="20" as="geometry" />
        </mxCell>
        <mxCell id="76qmlr3v4MU4s4Z6uiyM-9" value="" style="endArrow=classic;html=1;" parent="1" edge="1">
          <mxGeometry width="50" height="50" relative="1" as="geometry">
            <mxPoint x="404.5" y="270" as="sourcePoint" />
            <mxPoint x="404.5" y="240" as="targetPoint" />
          </mxGeometry>
        </mxCell>
        <mxCell id="76qmlr3v4MU4s4Z6uiyM-10" value="recvx" style="text;html=1;strokeColor=none;fillColor=none;align=center;verticalAlign=middle;whiteSpace=wrap;rounded=0;" parent="1" vertex="1">
          <mxGeometry x="385" y="270" width="40" height="20" as="geometry" />
        </mxCell>
        <mxCell id="zYgSdl2GJLWuqOsMpeiv-5" value="send-msg" style="swimlane;" vertex="1" parent="1">
          <mxGeometry x="30" y="630" width="1040" height="830" as="geometry" />
        </mxCell>
        <mxCell id="zYgSdl2GJLWuqOsMpeiv-33" style="edgeStyle=orthogonalEdgeStyle;rounded=0;orthogonalLoop=1;jettySize=auto;html=1;entryX=0.5;entryY=0;entryDx=0;entryDy=0;" edge="1" parent="zYgSdl2GJLWuqOsMpeiv-5" source="zYgSdl2GJLWuqOsMpeiv-6" target="zYgSdl2GJLWuqOsMpeiv-8">
          <mxGeometry relative="1" as="geometry" />
        </mxCell>
        <mxCell id="zYgSdl2GJLWuqOsMpeiv-6" value="发送者&lt;br&gt;协程" style="rounded=1;whiteSpace=wrap;html=1;" vertex="1" parent="zYgSdl2GJLWuqOsMpeiv-5">
          <mxGeometry x="690" y="40" width="120" height="60" as="geometry" />
        </mxCell>
        <mxCell id="zYgSdl2GJLWuqOsMpeiv-32" style="edgeStyle=orthogonalEdgeStyle;rounded=0;orthogonalLoop=1;jettySize=auto;html=1;" edge="1" parent="zYgSdl2GJLWuqOsMpeiv-5" source="zYgSdl2GJLWuqOsMpeiv-7" target="zYgSdl2GJLWuqOsMpeiv-9">
          <mxGeometry relative="1" as="geometry" />
        </mxCell>
        <mxCell id="zYgSdl2GJLWuqOsMpeiv-7" value="kernel&lt;br&gt;chan" style="rounded=1;whiteSpace=wrap;html=1;" vertex="1" parent="zYgSdl2GJLWuqOsMpeiv-5">
          <mxGeometry x="364" y="60" width="120" height="60" as="geometry" />
        </mxCell>
        <mxCell id="zYgSdl2GJLWuqOsMpeiv-34" style="edgeStyle=orthogonalEdgeStyle;rounded=0;orthogonalLoop=1;jettySize=auto;html=1;entryX=1;entryY=0.5;entryDx=0;entryDy=0;" edge="1" parent="zYgSdl2GJLWuqOsMpeiv-5" source="zYgSdl2GJLWuqOsMpeiv-8" target="zYgSdl2GJLWuqOsMpeiv-9">
          <mxGeometry relative="1" as="geometry" />
        </mxCell>
        <mxCell id="zYgSdl2GJLWuqOsMpeiv-8" value="chan &amp;lt;- 1" style="rounded=0;whiteSpace=wrap;html=1;" vertex="1" parent="zYgSdl2GJLWuqOsMpeiv-5">
          <mxGeometry x="690" y="160" width="120" height="60" as="geometry" />
        </mxCell>
        <mxCell id="zYgSdl2GJLWuqOsMpeiv-16" style="edgeStyle=orthogonalEdgeStyle;rounded=0;orthogonalLoop=1;jettySize=auto;html=1;" edge="1" parent="zYgSdl2GJLWuqOsMpeiv-5" source="zYgSdl2GJLWuqOsMpeiv-9" target="zYgSdl2GJLWuqOsMpeiv-10">
          <mxGeometry relative="1" as="geometry" />
        </mxCell>
        <mxCell id="zYgSdl2GJLWuqOsMpeiv-22" style="edgeStyle=orthogonalEdgeStyle;rounded=0;orthogonalLoop=1;jettySize=auto;html=1;entryX=0.5;entryY=0;entryDx=0;entryDy=0;" edge="1" parent="zYgSdl2GJLWuqOsMpeiv-5" source="zYgSdl2GJLWuqOsMpeiv-9" target="zYgSdl2GJLWuqOsMpeiv-12">
          <mxGeometry relative="1" as="geometry" />
        </mxCell>
        <mxCell id="zYgSdl2GJLWuqOsMpeiv-9" value="recvq&lt;br&gt;空" style="rhombus;whiteSpace=wrap;html=1;" vertex="1" parent="zYgSdl2GJLWuqOsMpeiv-5">
          <mxGeometry x="384" y="150" width="80" height="80" as="geometry" />
        </mxCell>
        <mxCell id="zYgSdl2GJLWuqOsMpeiv-17" style="edgeStyle=orthogonalEdgeStyle;rounded=0;orthogonalLoop=1;jettySize=auto;html=1;" edge="1" parent="zYgSdl2GJLWuqOsMpeiv-5" source="zYgSdl2GJLWuqOsMpeiv-10" target="zYgSdl2GJLWuqOsMpeiv-11">
          <mxGeometry relative="1" as="geometry" />
        </mxCell>
        <mxCell id="zYgSdl2GJLWuqOsMpeiv-20" style="edgeStyle=orthogonalEdgeStyle;rounded=0;orthogonalLoop=1;jettySize=auto;html=1;" edge="1" parent="zYgSdl2GJLWuqOsMpeiv-5" source="zYgSdl2GJLWuqOsMpeiv-10">
          <mxGeometry relative="1" as="geometry">
            <mxPoint x="270" y="370" as="targetPoint" />
          </mxGeometry>
        </mxCell>
        <mxCell id="zYgSdl2GJLWuqOsMpeiv-10" value="从recvq&lt;br&gt;queue取出一个" style="rounded=0;whiteSpace=wrap;html=1;" vertex="1" parent="zYgSdl2GJLWuqOsMpeiv-5">
          <mxGeometry x="170" y="270" width="120" height="60" as="geometry" />
        </mxCell>
        <mxCell id="zYgSdl2GJLWuqOsMpeiv-19" style="edgeStyle=orthogonalEdgeStyle;rounded=0;orthogonalLoop=1;jettySize=auto;html=1;entryX=0.5;entryY=0;entryDx=0;entryDy=0;" edge="1" parent="zYgSdl2GJLWuqOsMpeiv-5" source="zYgSdl2GJLWuqOsMpeiv-11">
          <mxGeometry relative="1" as="geometry">
            <mxPoint x="110" y="479" as="targetPoint" />
          </mxGeometry>
        </mxCell>
        <mxCell id="zYgSdl2GJLWuqOsMpeiv-11" value="唤醒该协程&lt;br&gt;接收数据" style="rounded=0;whiteSpace=wrap;html=1;" vertex="1" parent="zYgSdl2GJLWuqOsMpeiv-5">
          <mxGeometry x="50" y="370" width="120" height="60" as="geometry" />
        </mxCell>
        <mxCell id="zYgSdl2GJLWuqOsMpeiv-23" style="edgeStyle=orthogonalEdgeStyle;rounded=0;orthogonalLoop=1;jettySize=auto;html=1;entryX=0;entryY=0.5;entryDx=0;entryDy=0;" edge="1" parent="zYgSdl2GJLWuqOsMpeiv-5" source="zYgSdl2GJLWuqOsMpeiv-12" target="zYgSdl2GJLWuqOsMpeiv-13">
          <mxGeometry relative="1" as="geometry" />
        </mxCell>
        <mxCell id="zYgSdl2GJLWuqOsMpeiv-27" style="edgeStyle=orthogonalEdgeStyle;rounded=0;orthogonalLoop=1;jettySize=auto;html=1;entryX=0.5;entryY=0;entryDx=0;entryDy=0;" edge="1" parent="zYgSdl2GJLWuqOsMpeiv-5" source="zYgSdl2GJLWuqOsMpeiv-12" target="zYgSdl2GJLWuqOsMpeiv-14">
          <mxGeometry relative="1" as="geometry" />
        </mxCell>
        <mxCell id="zYgSdl2GJLWuqOsMpeiv-12" value="buff&lt;br&gt;queue" style="rhombus;whiteSpace=wrap;html=1;" vertex="1" parent="zYgSdl2GJLWuqOsMpeiv-5">
          <mxGeometry x="384" y="270" width="80" height="80" as="geometry" />
        </mxCell>
        <mxCell id="zYgSdl2GJLWuqOsMpeiv-26" style="edgeStyle=orthogonalEdgeStyle;rounded=0;orthogonalLoop=1;jettySize=auto;html=1;entryX=0.5;entryY=0;entryDx=0;entryDy=0;" edge="1" parent="zYgSdl2GJLWuqOsMpeiv-5" source="zYgSdl2GJLWuqOsMpeiv-13" target="zYgSdl2GJLWuqOsMpeiv-25">
          <mxGeometry relative="1" as="geometry" />
        </mxCell>
        <mxCell id="zYgSdl2GJLWuqOsMpeiv-13" value="存入buff" style="rounded=0;whiteSpace=wrap;html=1;" vertex="1" parent="zYgSdl2GJLWuqOsMpeiv-5">
          <mxGeometry x="510" y="280" width="120" height="60" as="geometry" />
        </mxCell>
        <mxCell id="zYgSdl2GJLWuqOsMpeiv-14" value="将该协和和消息打包&lt;br&gt;sudog" style="rounded=0;whiteSpace=wrap;html=1;" vertex="1" parent="zYgSdl2GJLWuqOsMpeiv-5">
          <mxGeometry x="364" y="470" width="120" height="60" as="geometry" />
        </mxCell>
        <mxCell id="zYgSdl2GJLWuqOsMpeiv-21" value="&lt;span&gt;接收方处理&lt;/span&gt;&lt;br&gt;&lt;span&gt;逻辑&lt;/span&gt;" style="rounded=1;whiteSpace=wrap;html=1;" vertex="1" parent="zYgSdl2GJLWuqOsMpeiv-5">
          <mxGeometry x="50" y="479" width="120" height="60" as="geometry" />
        </mxCell>
        <mxCell id="zYgSdl2GJLWuqOsMpeiv-24" value="&lt;span&gt;唤醒发送方&lt;/span&gt;" style="rounded=1;whiteSpace=wrap;html=1;" vertex="1" parent="zYgSdl2GJLWuqOsMpeiv-5">
          <mxGeometry x="210" y="370" width="120" height="60" as="geometry" />
        </mxCell>
        <mxCell id="zYgSdl2GJLWuqOsMpeiv-25" value="&lt;span&gt;唤醒发送方&lt;/span&gt;" style="rounded=1;whiteSpace=wrap;html=1;" vertex="1" parent="zYgSdl2GJLWuqOsMpeiv-5">
          <mxGeometry x="510" y="380" width="120" height="60" as="geometry" />
        </mxCell>
        <mxCell id="zYgSdl2GJLWuqOsMpeiv-30" value="存入recvq&lt;br&gt;queue" style="rounded=0;whiteSpace=wrap;html=1;" vertex="1" parent="zYgSdl2GJLWuqOsMpeiv-5">
          <mxGeometry x="365" y="560" width="120" height="60" as="geometry" />
        </mxCell>
        <mxCell id="zYgSdl2GJLWuqOsMpeiv-31" value="阻塞&lt;br&gt;发送方" style="ellipse;whiteSpace=wrap;html=1;aspect=fixed;" vertex="1" parent="zYgSdl2GJLWuqOsMpeiv-5">
          <mxGeometry x="385" y="660" width="80" height="80" as="geometry" />
        </mxCell>
      </root>
    </mxGraphModel>
  </diagram>
</mxfile>
